<?xml version="1.0" encoding="utf-8"?>
<!-- Generator: Adobe Illustrator 18.1.0, SVG Export Plug-In . SVG Version: 6.00 Build 0)  -->
<svg version="1.1" id="Capa_1" xmlns="http://www.w3.org/2000/svg" xmlns:xlink="http://www.w3.org/1999/xlink" x="0px" y="0px"
	 width="74px" height="74px" viewBox="0 0 74 74" enable-background="new 0 0 74 74" xml:space="preserve">
<g>
	<g>
		<path fill="#113869" d="M37,74C16.6,74,0,57.4,0,37S16.6,0,37,0s37,16.6,37,37S57.4,74,37,74z M37,2.9C18.2,2.9,2.9,18.2,2.9,37
			S18.2,71.1,37,71.1S71.1,55.8,71.1,37S55.8,2.9,37,2.9z"/>
	</g>
	<g>
		<path fill="#113869" d="M37,6.1C19.9,6.1,6.1,19.9,6.1,37c0,7.9,3,15.1,7.9,20.6c0.4-0.2,0.8-0.3,1.3-0.5c1.4-0.6,2.8-1,4.2-1.6
			c1.5-0.6,3-1.2,4.4-2c2.1-1.1,3.1-2.8,3.1-5.2c0-0.5,0-0.9,0-1.4c0-0.1,0-0.6,0-1.1c-0.2-0.4-0.4-0.8-0.6-1.2
			c-0.5-1.3-1-2.6-1.3-3.9c0,0,0-0.1,0-0.1c0.1,0.5,0.1,0.7,0.1,0.7s-2-3.6-1.8-6.4c0.1-1,0-2.1-0.1-2.9c-0.2,0-0.4,0-0.6,0
			c-0.6-2-1-4-0.6-5.8c0.3-1.3,0.6-2.9,1-4.2c0.3-1.4,1.1-2.6,2-3.7c0.2-0.3,0.4-0.6,0.7-1c-0.4-0.1-0.6-0.1-1-0.2
			c1.5-1.4,3.3-2.1,5.4-2.2c-0.1-0.2-0.2-0.3-0.3-0.5c0.9-0.3,1.8-0.7,2.7-0.8c2.8-0.4,6.1,0.3,8.7,1.5c0.6,0.3,1.2,0.6,1.8,0.6
			c0.2,0,0.3,0,0.5-0.1c0-0.2-0.1-0.4-0.1-0.6c1.9,1,3.4,2.9,4,5c0.2,0.8,0.3,1.7,0.4,2.5c0.2,2,1,4.6,0.3,6.5
			c-0.1,0.3-0.2,0.9-0.5,1.1c-0.1,0-0.3,0-0.4,0c-0.2,1.1-0.5,3.2-0.4,5.2c0.1,2.5-1.4,5.2-1.8,5.7c-0.1,0.8-0.3,1.7-0.5,2.5
			c-0.3,1-0.7,2-1.3,2.8c0.1,0.5,0.1,1.1,0.2,1.3c0.4,2.2,0.9,3.8,2.7,5.2c1,0.7,2.2,1.2,3.3,1.7c2.4,1,7.1,1.9,9.5,3.9
			c5.4-5.6,8.8-13.2,8.8-21.5C67.9,19.9,54.1,6.1,37,6.1z"/>
		<path fill="#113869" d="M43.3,46.8C43.3,46.8,43.3,46.8,43.3,46.8C43.3,46.8,43.3,46.8,43.3,46.8C43.3,46.9,43.3,46.8,43.3,46.8z"
			/>
	</g>
	<path fill="#E6E6E6" d="M45,24.3c-0.2,1.5,0.4,3,0.7,4.5c0.2,1.2,0.4,2.5,0.5,3.8c0.1,1.4-0.1,2.8-0.2,4.2c-0.1,1.3-0.3,2.7-0.5,4
		c-0.1,1-0.3,2-0.6,3c-0.4,1.6-1.3,3-2.4,4.2c-2.3,2.3-5.7,3.4-8.9,2.7c-3.2-0.6-5.9-3-7.1-6c-0.5-1.3-1-2.6-1.3-3.9
		c-0.6-2.6-0.7-5.6-0.8-8.3c0-1.4,0.2-2.2,0.2-3.4c0-0.8,0.1-1.3,0.3-2.1c0.1-0.8,0.5-1.7,0.6-2.4c0-0.6,0-1.1,0-1.7
		c0.1-1,0.6-1.9,1.3-2.6c0.3-0.3,0.6-0.5,0.9-0.8c0.4-0.4,0.8-0.5,1.3-0.5c0.7-0.1,1.4-0.1,2.2-0.2c2.1-0.1,4.2,0.1,6.2,0
		c1.1,0,2.2-0.2,3.4-0.1c0.8,0,1.6,0.2,2.3,0.6c0.5,0.3,1,0.8,1.4,1.4c0.3,0.4,0.6,0.8,0.7,1.3C45.2,22.6,45.1,23.5,45,24.3z"/>
</g>
</svg>
